<svg xmlns="http://www.w3.org/2000/svg" viewBox="0 0 65.01 24" width="65.01" height="24" role="img" aria-label="zlatan">
  <title>zlatan</title>
  <path d="M6.5 7.2 A12.72 12.72 0 0 1 17.5 7.2 L6.5 17.2 H17.5" fill="none" stroke="currentColor" stroke-width="2" stroke-linecap="round" stroke-linejoin="round"/>
  <path d="M22.709999999999997 17.2V15.3775L26.919107142857143 11.529999999999998V11.327499999999999H22.854642857142856V10.069107142857142H28.53910714285714V11.906071428571426L24.315535714285712 15.753571428571428V15.941607142857142H28.654821428571427V17.2Z M30.144642857142856 17.2V7.0749999999999975H31.634464285714287V17.2Z M35.698928571428574 17.4025Q34.93232142857143 17.4025 34.332053571428574 17.142142857142858Q33.731785714285714 16.881785714285712 33.377410714285716 16.37553571428571Q33.02303571428572 15.869285714285713 33.02303571428572 15.146071428571428Q33.02303571428572 14.408392857142855 33.377410714285716 13.923839285714283Q33.731785714285714 13.439285714285713 34.34651785714286 13.193392857142856Q34.96125 12.947499999999998 35.74232142857143 12.947499999999998H37.91196428571429V12.484642857142855Q37.91196428571429 11.862678571428571 37.53589285714286 11.486607142857142Q37.15982142857143 11.110535714285714 36.378750000000004 11.110535714285714Q35.61214285714286 11.110535714285714 35.207142857142856 11.472142857142856Q34.80214285714286 11.833749999999998 34.67196428571429 12.412321428571428L33.28339285714286 11.963928571428571Q33.456964285714285 11.385357142857142 33.84026785714286 10.915267857142856Q34.22357142857143 10.44517857142857 34.86 10.155892857142856Q35.496428571428574 9.866607142857141 36.393214285714286 9.866607142857141Q37.78178571428572 9.866607142857141 38.57732142857143 10.575357142857142Q39.37285714285714 11.284107142857142 39.37285714285714 12.585892857142856V15.522142857142857Q39.37285714285714 15.956071428571427 39.777857142857144 15.956071428571427H40.385357142857146V17.2H39.27160714285714Q38.76535714285715 17.2 38.447142857142865 16.939642857142857Q38.128928571428574 16.679285714285715 38.128928571428574 16.230892857142855V16.1875H37.91196428571429Q37.79625 16.404464285714283 37.564821428571435 16.693749999999998Q37.33339285714286 16.983035714285712 36.885000000000005 17.192767857142854Q36.43660714285714 17.4025 35.698928571428574 17.4025ZM35.91589285714286 16.173035714285714Q36.81267857142858 16.173035714285714 37.362321428571434 15.659553571428571Q37.91196428571429 15.146071428571428 37.91196428571429 14.249285714285714V14.104642857142856H35.82910714285715Q35.23607142857143 14.104642857142856 34.87446428571428 14.357767857142857Q34.51285714285714 14.610892857142856 34.51285714285714 15.10267857142857Q34.51285714285714 15.594464285714285 34.88892857142857 15.88375Q35.265 16.173035714285714 35.91589285714286 16.173035714285714Z M44.14607142857143 17.2Q43.495178571428575 17.2 43.111875000000005 16.809464285714284Q42.728571428571435 16.41892857142857 42.728571428571435 15.768035714285713V11.327499999999999H40.761428571428574V10.069107142857142H42.728571428571435V7.71142857142857H44.21839285714287V10.069107142857142H46.344642857142865V11.327499999999999H44.21839285714287V15.50767857142857Q44.21839285714287 15.941607142857142 44.62339285714286 15.941607142857142H46.11321428571429V17.2Z M49.946250000000006 17.4025Q49.17964285714286 17.4025 48.579375 17.142142857142858Q47.979107142857146 16.881785714285712 47.62473214285715 16.37553571428571Q47.27035714285715 15.869285714285713 47.27035714285715 15.146071428571428Q47.27035714285715 14.408392857142855 47.62473214285715 13.923839285714283Q47.979107142857146 13.439285714285713 48.59383928571429 13.193392857142856Q49.20857142857143 12.947499999999998 49.98964285714286 12.947499999999998H52.15928571428572V12.484642857142855Q52.15928571428572 11.862678571428571 51.783214285714294 11.486607142857142Q51.407142857142865 11.110535714285714 50.626071428571436 11.110535714285714Q49.85946428571429 11.110535714285714 49.454464285714295 11.472142857142856Q49.04946428571429 11.833749999999998 48.91928571428572 12.412321428571428L47.53071428571429 11.963928571428571Q47.70428571428572 11.385357142857142 48.08758928571429 10.915267857142856Q48.470892857142864 10.44517857142857 49.10732142857144 10.155892857142856Q49.743750000000006 9.866607142857141 50.64053571428572 9.866607142857141Q52.02910714285715 9.866607142857141 52.82464285714286 10.575357142857142Q53.620178571428575 11.284107142857142 53.620178571428575 12.585892857142856V15.522142857142857Q53.620178571428575 15.956071428571427 54.025178571428576 15.956071428571427H54.63267857142858V17.2H53.518928571428575Q53.01267857142858 17.2 52.69446428571429 16.939642857142857Q52.376250000000006 16.679285714285715 52.376250000000006 16.230892857142855V16.1875H52.15928571428572Q52.04357142857143 16.404464285714283 51.81214285714286 16.693749999999998Q51.58071428571429 16.983035714285712 51.13232142857144 17.192767857142854Q50.68392857142858 17.4025 49.946250000000006 17.4025ZM50.16321428571429 16.173035714285714Q51.06 16.173035714285714 51.60964285714286 15.659553571428571Q52.15928571428572 15.146071428571428 52.15928571428572 14.249285714285714V14.104642857142856H50.07642857142858Q49.48339285714286 14.104642857142856 49.12178571428572 14.357767857142857Q48.760178571428575 14.610892857142856 48.760178571428575 15.10267857142857Q48.760178571428575 15.594464285714285 49.136250000000004 15.88375Q49.51232142857143 16.173035714285714 50.16321428571429 16.173035714285714Z M55.71750000000001 17.2V10.069107142857142H57.17839285714287V11.139464285714284H57.40982142857144Q57.61232142857144 10.705535714285713 58.133035714285725 10.329464285714284Q58.65375000000001 9.953392857142855 59.680714285714295 9.953392857142855Q60.4907142857143 9.953392857142855 61.11991071428572 10.314999999999998Q61.749107142857156 10.67660714285714 62.110714285714295 11.33473214285714Q62.47232142857144 11.99285714285714 62.47232142857144 12.918571428571427V17.2H60.98250000000001V13.034285714285712Q60.98250000000001 12.108571428571427 60.51964285714287 11.667410714285712Q60.05678571428572 11.226249999999999 59.24678571428572 11.226249999999999Q58.321071428571436 11.226249999999999 57.76419642857144 11.833749999999998Q57.20732142857144 12.441249999999998 57.20732142857144 13.598392857142855V17.2Z" fill="currentColor"/>
</svg>
